<?xml version="1.0" encoding="UTF-8"?>
<svg version="1.1" xmlns="http://www.w3.org/2000/svg" width="80" height="80">
<path d="M0 0 C1.25472107 0.00607269 1.25472107 0.00607269 2.53479004 0.01226807 C3.39286255 0.01035461 4.25093506 0.00844116 5.13500977 0.00646973 C6.95072726 0.00510763 8.76645449 0.00880579 10.58215332 0.01715088 C13.36736854 0.02785015 16.15193872 0.01725653 18.93713379 0.00445557 C20.69885397 0.00577716 22.46057374 0.00833954 24.22229004 0.01226807 C25.05877075 0.0082196 25.89525146 0.00417114 26.75708008 0 C32.6486217 0.04797473 32.6486217 0.04797473 34.87854004 2.27789307 C35.05379059 5.07474103 35.10997193 7.77117386 35.07385254 10.56695557 C35.07102264 11.38537933 35.06819275 12.2038031 35.0652771 13.04702759 C35.05406536 15.665797 35.02895933 18.28422671 35.00354004 20.90289307 C34.99351151 22.67632563 34.98438544 24.44976355 34.97619629 26.22320557 C34.95412282 30.57489933 34.91958648 34.92633857 34.87854004 39.27789307 C35.53854004 39.27789307 36.19854004 39.27789307 36.87854004 39.27789307 C36.87854004 40.59789307 36.87854004 41.91789307 36.87854004 43.27789307 C37.8182666 43.22568604 37.8182666 43.22568604 38.77697754 43.17242432 C39.59424316 43.145354 40.41150879 43.11828369 41.25354004 43.09039307 C42.06564941 43.05558838 42.87775879 43.02078369 43.71447754 42.98492432 C44.42861816 43.081604 45.14275879 43.17828369 45.87854004 43.27789307 C48.22624647 46.79945271 48.25523618 48.7856115 48.50354004 52.96539307 C48.57830566 54.14488525 48.65307129 55.32437744 48.73010254 56.53961182 C48.77908691 57.44324463 48.82807129 58.34687744 48.87854004 59.27789307 C50.19854004 59.60789307 51.51854004 59.93789307 52.87854004 60.27789307 C52.90319749 56.16616747 52.92137962 52.05447029 52.93347168 47.94268799 C52.93851083 46.54294078 52.9453422 45.14319887 52.95397949 43.74346924 C52.96606324 41.7354353 52.97123811 39.72736349 52.97619629 37.71929932 C52.98143311 36.50959473 52.98666992 35.29989014 52.99206543 34.05352783 C53.19629289 31.3697729 53.19629289 31.3697729 51.87854004 30.27789307 C51.8067404 28.75861269 51.79461997 27.23621825 51.81604004 25.71539307 C51.82506348 24.889104 51.83408691 24.06281494 51.84338379 23.21148682 C51.85498535 22.57340088 51.86658691 21.93531494 51.87854004 21.27789307 C50.95041504 21.33976807 50.02229004 21.40164307 49.06604004 21.46539307 C45.87854004 21.27789307 45.87854004 21.27789307 44.22229004 20.05914307 C42.5467889 17.83812993 42.39069769 16.34566871 42.19104004 13.59039307 C42.09242676 12.37802979 42.09242676 12.37802979 41.99182129 11.14117432 C41.93574707 10.2188501 41.93574707 10.2188501 41.87854004 9.27789307 C43.52854004 9.27789307 45.17854004 9.27789307 46.87854004 9.27789307 C46.54854004 12.24789307 46.21854004 15.21789307 45.87854004 18.27789307 C46.80666504 18.21601807 47.73479004 18.15414307 48.69104004 18.09039307 C51.87854004 18.27789307 51.87854004 18.27789307 53.75354004 19.27789307 C55.58342951 22.53102991 55.05982359 25.59179416 54.87854004 29.27789307 C55.53854004 29.27789307 56.19854004 29.27789307 56.87854004 29.27789307 C56.73930466 26.02757523 56.59099819 22.77773245 56.44104004 19.52789307 C56.40172363 18.60750244 56.36240723 17.68711182 56.32189941 16.73883057 C56.28000488 15.84937744 56.23811035 14.95992432 56.19494629 14.04351807 C56.15828857 13.22657471 56.12163086 12.40963135 56.0838623 11.56793213 C55.88719729 9.37445076 55.4755341 7.39392894 54.87854004 5.27789307 C56.85854004 5.27789307 58.83854004 5.27789307 60.87854004 5.27789307 C60.71934082 5.83130371 60.5601416 6.38471436 60.39611816 6.95489502 C59.83053367 9.49335562 59.68531036 11.84715559 59.59729004 14.44586182 C59.55990723 15.4210376 59.52252441 16.39621338 59.48400879 17.40093994 C59.41329344 19.45561362 59.3429855 21.51030135 59.27307129 23.56500244 C59.23568848 24.53631104 59.19830566 25.50761963 59.15979004 26.50836182 C59.12949707 27.3993457 59.0992041 28.29032959 59.06799316 29.20831299 C58.87854004 31.27789307 58.87854004 31.27789307 57.87854004 32.27789307 C57.76883214 34.38783463 57.72263056 36.50113221 57.70275879 38.61383057 C57.67891113 39.90547119 57.65506348 41.19711182 57.63049316 42.52789307 C57.59537416 44.5908273 57.56603822 46.65317287 57.5526123 48.71636963 C57.53714193 50.70324185 57.49529789 52.68985354 57.45275879 54.67633057 C57.43817627 55.86919678 57.42359375 57.06206299 57.40856934 58.29107666 C56.87854004 61.27789307 56.87854004 61.27789307 55.00671387 63.20220947 C52.87854004 64.27789307 52.87854004 64.27789307 50.25354004 64.09039307 C47.87854004 63.27789307 47.87854004 63.27789307 45.87854004 61.27789307 C45.57254941 58.70872649 45.36766917 56.23030922 45.25354004 53.65289307 C45.19553223 52.59328369 45.19553223 52.59328369 45.13635254 51.51226807 C45.0420628 49.76790782 44.95921113 48.02293616 44.87854004 46.27789307 C42.23854004 45.94789307 39.59854004 45.61789307 36.87854004 45.27789307 C36.87854004 46.26789307 36.87854004 47.25789307 36.87854004 48.27789307 C36.21854004 48.27789307 35.55854004 48.27789307 34.87854004 48.27789307 C34.90174316 48.96496338 34.92494629 49.65203369 34.94885254 50.35992432 C34.96689941 51.260979 34.98494629 52.16203369 35.00354004 53.09039307 C35.02674316 53.98371338 35.04994629 54.87703369 35.07385254 55.79742432 C34.87854004 58.27789307 34.87854004 58.27789307 32.87854004 61.27789307 C29.92242945 61.56941328 27.17912958 61.67372945 24.22229004 61.64117432 C22.93518127 61.64192207 22.93518127 61.64192207 21.62207031 61.64268494 C19.80633226 61.64034251 17.99059108 61.63060409 16.17492676 61.61407471 C13.38963909 61.59048706 10.60530838 61.59351164 7.81994629 61.60015869 C6.05822181 61.59458197 4.29650138 61.58747212 2.53479004 61.57867432 C1.69830933 61.57958572 0.86182861 61.58049713 0 61.58143616 C-5.89044018 61.50891285 -5.89044018 61.50891285 -8.12145996 59.27789307 C-8.37542725 56.88690186 -8.37542725 56.88690186 -8.38024902 53.85015869 C-8.38655334 52.71558228 -8.39285767 51.58100586 -8.39935303 50.41204834 C-8.39530457 49.1818396 -8.3912561 47.95163086 -8.38708496 46.68414307 C-8.38899841 45.42654175 -8.39091187 44.16894043 -8.3928833 42.87322998 C-8.39424645 40.20996431 -8.39154002 37.54706377 -8.38220215 34.8838501 C-8.37080748 31.46717912 -8.37736744 28.05082234 -8.38934708 24.6341629 C-8.3983045 21.37997827 -8.39203624 18.12583179 -8.38708496 14.87164307 C-8.39113342 13.64143433 -8.39518188 12.41122559 -8.39935303 11.14373779 C-8.39304871 10.00916138 -8.38674438 8.87458496 -8.38024902 7.70562744 C-8.37865784 6.7035022 -8.37706665 5.70137695 -8.37542725 4.66888428 C-7.82294714 -0.53247495 -4.42728825 0.03605134 0 0 Z M-1.12145996 5.27789307 C-1.12145996 5.60789307 -1.12145996 5.93789307 -1.12145996 6.27789307 C8.44854004 6.27789307 18.01854004 6.27789307 27.87854004 6.27789307 C27.87854004 5.94789307 27.87854004 5.61789307 27.87854004 5.27789307 C18.30854004 5.27789307 8.73854004 5.27789307 -1.12145996 5.27789307 Z M-3.12145996 6.27789307 C-3.12145996 12.21789307 -3.12145996 18.15789307 -3.12145996 24.27789307 C-2.79145996 24.27789307 -2.46145996 24.27789307 -2.12145996 24.27789307 C-2.12145996 18.33789307 -2.12145996 12.39789307 -2.12145996 6.27789307 C-2.45145996 6.27789307 -2.78145996 6.27789307 -3.12145996 6.27789307 Z M28.87854004 7.27789307 C28.87854004 12.88789307 28.87854004 18.49789307 28.87854004 24.27789307 C29.20854004 24.27789307 29.53854004 24.27789307 29.87854004 24.27789307 C29.87854004 18.66789307 29.87854004 13.05789307 29.87854004 7.27789307 C29.54854004 7.27789307 29.21854004 7.27789307 28.87854004 7.27789307 Z M-1.12145996 25.27789307 C-1.12145996 25.60789307 -1.12145996 25.93789307 -1.12145996 26.27789307 C8.44854004 26.27789307 18.01854004 26.27789307 27.87854004 26.27789307 C27.87854004 25.94789307 27.87854004 25.61789307 27.87854004 25.27789307 C18.30854004 25.27789307 8.73854004 25.27789307 -1.12145996 25.27789307 Z M11.87854004 41.27789307 C11.87854004 43.58789307 11.87854004 45.89789307 11.87854004 48.27789307 C12.53854004 47.94789307 13.19854004 47.61789307 13.87854004 47.27789307 C13.54854004 45.29789307 13.21854004 43.31789307 12.87854004 41.27789307 C12.54854004 41.27789307 12.21854004 41.27789307 11.87854004 41.27789307 Z " fill="#000000" transform="translate(11.1214599609375,14.72210693359375)"/>
<path d="M0 0 C1.98 0.66 3.96 1.32 6 2 C6 4.97 6 7.94 6 11 C4.35 11.66 2.7 12.32 1 13 C1 14.65 1 16.3 1 18 C-0.98 18 -2.96 18 -5 18 C-5.76681614 6.36143498 -5.76681614 6.36143498 -3.88671875 3.0234375 C-2.5 1.6875 -2.5 1.6875 0 0 Z " fill="#000000" transform="translate(71,1)"/>
<path d="M0 0 C2.4375 0.75 2.4375 0.75 4.4375 2.75 C4.58247985 5.33064129 4.62427545 7.79943884 4.5625 10.375 C4.55347656 11.08140625 4.54445313 11.7878125 4.53515625 12.515625 C4.51157603 14.26056098 4.47570461 16.00532295 4.4375 17.75 C2.7875 17.75 1.1375 17.75 -0.5625 17.75 C-0.5625 16.1 -0.5625 14.45 -0.5625 12.75 C-2.2125 12.42 -3.8625 12.09 -5.5625 11.75 C-5.64340971 10.12581255 -5.70164995 8.50048255 -5.75 6.875 C-5.78480469 5.97007813 -5.81960937 5.06515625 -5.85546875 4.1328125 C-5.75878906 3.34648437 -5.66210938 2.56015625 -5.5625 1.75 C-2.5625 -0.25 -2.5625 -0.25 0 0 Z " fill="#000000" transform="translate(53.5625,5.25)"/>
</svg>
